<?xml version="1.0" encoding="UTF-8" standalone="no"?>
<!-- Generator: Adobe Illustrator 13.0.0, SVG Export Plug-In  -->

<svg
   xmlns:dc="http://purl.org/dc/elements/1.1/"
   xmlns:cc="http://creativecommons.org/ns#"
   xmlns:rdf="http://www.w3.org/1999/02/22-rdf-syntax-ns#"
   xmlns:svg="http://www.w3.org/2000/svg"
   xmlns="http://www.w3.org/2000/svg"
   xmlns:sodipodi="http://sodipodi.sourceforge.net/DTD/sodipodi-0.dtd"
   xmlns:inkscape="http://www.inkscape.org/namespaces/inkscape"
   version="1.1"
   x="0px"
   y="0px"
   width="619px"
   height="520px"
   viewBox="-49.543 -42.75 619 520"
   enable-background="new -49.543 -42.75 619 520"
   xml:space="preserve"
   id="svg2"
   inkscape:version="0.91 r"
   sodipodi:docname="Position_vector2.svg"><metadata
     id="metadata62"><rdf:RDF><cc:Work
         rdf:about=""><dc:format>image/svg+xml</dc:format><dc:type
           rdf:resource="http://purl.org/dc/dcmitype/StillImage" /></cc:Work></rdf:RDF></metadata><sodipodi:namedview
     pagecolor="#ffffff"
     bordercolor="#666666"
     borderopacity="1"
     objecttolerance="10"
     gridtolerance="10"
     guidetolerance="10"
     inkscape:pageopacity="0"
     inkscape:pageshadow="2"
     inkscape:window-width="1366"
     inkscape:window-height="708"
     id="namedview60"
     showgrid="false"
     inkscape:zoom="1.2836708"
     inkscape:cx="327.87163"
     inkscape:cy="243.88046"
     inkscape:window-x="0"
     inkscape:window-y="0"
     inkscape:window-maximized="1"
     inkscape:current-layer="svg2" /><defs
     id="defs4" /><line
     fill="none"
     stroke="#2828FF"
     stroke-width="8.5"
     x1="17.457"
     y1="401.25"
     x2="195.686"
     y2="133.906"
     id="line6" /><polyline
     fill="none"
     stroke="#000000"
     stroke-width="4"
     points="517.457,401.25 17.457,401.25 17.457,1.25 "
     id="polyline8" /><polygon
     points="268.652,44.247 273.976,38.091 268.652,31.935 284.625,38.091 "
     id="polygon10"
     transform="translate(90,182)" /><polygon
     fill="#2828FF"
     points="204.358,165.287 195.686,133.906 163.383,137.971 219.314,98.463 "
     id="polygon12" /><line
     fill="none"
     stroke="#000000"
     stroke-width="2.5"
     x1="4.332"
     y1="1.25"
     x2="30.582"
     y2="1.25"
     id="line14" /><line
     fill="none"
     stroke="#000000"
     stroke-width="2.5"
     x1="4.332"
     y1="101.25"
     x2="30.582"
     y2="101.25"
     id="line16" /><line
     fill="none"
     stroke="#000000"
     stroke-width="2.5"
     x1="4.332"
     y1="201.25"
     x2="30.582"
     y2="201.25"
     id="line18" /><line
     fill="none"
     stroke="#000000"
     stroke-width="2.5"
     x1="4.332"
     y1="301.25"
     x2="30.582"
     y2="301.25"
     id="line20" /><line
     fill="none"
     stroke="#000000"
     stroke-width="2.5"
     x1="117.457"
     y1="414.375"
     x2="117.457"
     y2="388.125"
     id="line22" /><line
     fill="none"
     stroke="#000000"
     stroke-width="2.5"
     x1="217.457"
     y1="414.375"
     x2="217.457"
     y2="388.125"
     id="line24" /><line
     fill="none"
     stroke="#000000"
     stroke-width="2.5"
     x1="317.457"
     y1="414.375"
     x2="317.457"
     y2="388.125"
     id="line26" /><line
     fill="none"
     stroke="#000000"
     stroke-width="2.5"
     x1="417.457"
     y1="414.375"
     x2="417.457"
     y2="388.125"
     id="line28" /><line
     fill="none"
     stroke="#000000"
     stroke-width="2.5"
     x1="517.457"
     y1="414.375"
     x2="517.457"
     y2="388.125"
     id="line30" /><g
     id="g32"><path
       d="M20.703,425.104c3.141,0,5.562,0.912,7.263,2.734c1.701,1.823,2.551,4.46,2.551,7.91c0,2.523-0.432,5.358-1.294,8.509   c-0.863,3.148-2.112,5.875-3.748,8.178c-1.636,2.304-3.503,4.013-5.603,5.127c-2.1,1.115-4.297,1.673-6.592,1.673   c-3.271,0-5.754-0.911-7.446-2.734c-1.693-1.822-2.539-4.427-2.539-7.813c0-2.441,0.411-5.2,1.233-8.276   c0.822-3.076,2.01-5.79,3.564-8.143c1.554-2.352,3.41-4.134,5.566-5.346C15.816,425.711,18.164,425.104,20.703,425.104z    M25.879,434.724c0-4.98-1.815-7.471-5.444-7.471c-1.758,0-3.398,0.627-4.919,1.88c-1.522,1.254-2.856,3.044-4.004,5.371   c-1.147,2.328-2.039,4.883-2.673,7.666s-0.952,5.241-0.952,7.373c0,5.029,1.831,7.544,5.493,7.544c2.229,0,4.276-1.025,6.14-3.076   c1.863-2.051,3.389-4.928,4.578-8.63C25.285,441.678,25.879,438.126,25.879,434.724z"
       id="path34" /></g><g
     id="g36"><path
       d="M235.35,178.307l0.269-1.196c0.96-0.081,1.676-0.455,2.148-1.123c0.472-0.667,0.708-1.839,0.708-3.516   c0-0.635-0.024-1.326-0.073-2.075l-0.171-3.149h-10.742l-1.343,2.393c-0.635,1.123-1.099,2.087-1.392,2.894   c-0.293,0.805-0.439,1.518-0.439,2.136c0,1.367,0.822,2.182,2.466,2.441l-0.269,1.196h-9.985l0.269-1.196   c0.504-0.064,0.98-0.265,1.428-0.599c0.447-0.333,0.923-0.838,1.428-1.514c0.504-0.675,1.212-1.794,2.124-3.356l15.649-27.051   h3.687l1.758,27.222c0.081,1.286,0.228,2.291,0.439,3.016c0.211,0.724,0.5,1.261,0.867,1.611c0.366,0.35,0.899,0.573,1.599,0.671   l-0.269,1.196H235.35z M228.587,165.123h9.546l-0.415-7.861c-0.049-1.074-0.09-2.417-0.122-4.028   c-0.033-1.611-0.049-2.774-0.049-3.491h-0.269L228.587,165.123z"
       id="path38" /></g><line
     x1="364.86401"
     y1="220.091"
     x2="315.957"
     y2="220.091"
     id="line58"
     style="fill:none;stroke:#000000;stroke-width:3" /><text
     xml:space="preserve"
     style="font-style:normal;font-weight:normal;font-size:40px;line-height:125%;font-family:Sans;letter-spacing:0px;word-spacing:0px;fill:#000000;fill-opacity:1;stroke:none;stroke-width:1px;stroke-linecap:butt;stroke-linejoin:miter;stroke-opacity:1"
     x="-34.11927"
     y="207.57202"
     id="text4190"
     sodipodi:linespacing="125%"><tspan
       sodipodi:role="line"
       id="tspan4192"
       x="-34.11927"
       y="207.57202">y</tspan></text>
<text
     xml:space="preserve"
     style="font-style:normal;font-weight:normal;font-size:40px;line-height:125%;font-family:Sans;letter-spacing:0px;word-spacing:0px;fill:#000000;fill-opacity:1;stroke:none;stroke-width:1px;stroke-linecap:butt;stroke-linejoin:miter;stroke-opacity:1"
     x="261.30447"
     y="458.4873"
     id="text4194"
     sodipodi:linespacing="125%"><tspan
       sodipodi:role="line"
       id="tspan4196"
       x="261.30447"
       y="458.4873">x</tspan></text>
<path
     style="opacity:1;fill:#ff5555;fill-opacity:1;fill-rule:nonzero;stroke:none;stroke-width:2.34010267;stroke-linecap:butt;stroke-linejoin:round;stroke-miterlimit:4;stroke-dasharray:none;stroke-dashoffset:0;stroke-opacity:1"
     id="path4198"
     sodipodi:type="arc"
     sodipodi:cx="21.805731"
     sodipodi:cy="401.03754"
     sodipodi:rx="181.80504"
     sodipodi:ry="213.04378"
     sodipodi:start="5.3804561"
     sodipodi:end="0.00084778082"
     d="M 134.42846,233.79381 A 181.80504,213.04378 0 0 1 203.6107,401.21815 L 21.805731,401.03754 Z" /><text
     xml:space="preserve"
     style="font-style:normal;font-weight:normal;font-size:40px;line-height:125%;font-family:Sans;letter-spacing:0px;word-spacing:0px;fill:#ffffff;fill-opacity:1;stroke:none;stroke-width:1px;stroke-linecap:butt;stroke-linejoin:miter;stroke-opacity:1"
     x="77.151909"
     y="367.08051"
     id="text4208"
     sodipodi:linespacing="125%"><tspan
       sodipodi:role="line"
       id="tspan4210"
       x="77.151909"
       y="367.08051">56.3°</tspan></text>
<text
     xml:space="preserve"
     style="font-style:normal;font-weight:normal;font-size:40px;line-height:125%;font-family:Sans;letter-spacing:0px;word-spacing:0px;fill:#000000;fill-opacity:1;stroke:none;stroke-width:1px;stroke-linecap:butt;stroke-linejoin:miter;stroke-opacity:1"
     x="302.62021"
     y="259.7825"
     id="text4212"
     sodipodi:linespacing="125%"><tspan
       sodipodi:role="line"
       id="tspan4214"
       x="302.62021"
       y="259.7825">|OA| = 3.6</tspan></text>
<line
     style="fill:#808080;stroke:#000000;stroke-width:5.14279175;stroke-miterlimit:4;stroke-dasharray:20.57116665, 5.14279167000000026;stroke-dashoffset:0;stroke-opacity:1;fill-opacity:1;opacity:0.439"
     x1="-25.703461"
     y1="362.39282"
     x2="169.22731"
     y2="68.852951"
     id="line6-3" /><path
     style="fill:#808080;fill-rule:evenodd;stroke:#000000;stroke-width:3.062;stroke-linecap:butt;stroke-linejoin:miter;stroke-miterlimit:4;stroke-dasharray:none;stroke-opacity:1;fill-opacity:1;opacity:0.439"
     d="M 219.6872,98.769358 130.65449,34.103483"
     id="path4637"
     inkscape:connector-curvature="0" /><path
     style="fill:#808080;fill-rule:evenodd;stroke:#000000;stroke-width:3.062;stroke-linecap:butt;stroke-linejoin:miter;stroke-miterlimit:4;stroke-dasharray:none;stroke-opacity:1;fill-opacity:1;opacity:0.439"
     d="M 15.83776,394.15921 -73.19495,329.49333"
     id="path4637-7"
     inkscape:connector-curvature="0" /><text
     xml:space="preserve"
     style="font-style:normal;font-weight:normal;font-size:40px;line-height:125%;font-family:Sans;letter-spacing:0px;word-spacing:0px;opacity:0.46200005;fill:#000000;fill-opacity:1;stroke:none;stroke-width:1px;stroke-linecap:butt;stroke-linejoin:miter;stroke-opacity:1"
     x="-151.2222"
     y="228.01617"
     id="text4654"
     sodipodi:linespacing="125%"
     transform="matrix(0.59170609,-0.80615377,0.80615377,0.59170609,0,0)"><tspan
       sodipodi:role="line"
       id="tspan4656"
       x="-151.2222"
       y="228.01617">3.6</tspan></text>
<polygon
     points="268.652,31.935 284.625,38.091 268.652,44.247 273.976,38.091 "
     id="polygon10-5"
     transform="translate(91.959146,97.48313)" /><line
     x1="366.82315"
     y1="135.57413"
     x2="317.91614"
     y2="135.57413"
     id="line58-3"
     style="fill:none;stroke:#000000;stroke-width:3" /><text
     xml:space="preserve"
     style="font-style:normal;font-weight:normal;font-size:40px;line-height:125%;font-family:Sans;letter-spacing:0px;word-spacing:0px;fill:#000000;fill-opacity:1;stroke:none;stroke-width:1px;stroke-linecap:butt;stroke-linejoin:miter;stroke-opacity:1"
     x="318.57935"
     y="175.26562"
     id="text4212-5"
     sodipodi:linespacing="125%"><tspan
       sodipodi:role="line"
       id="tspan4214-6"
       x="318.57935"
       y="175.26562">OA = (2, 3)</tspan></text>
</svg>